PathFileType	4	(X/Y/Z)	/Users/niels/Desktop/University/Third Semester/Perception and Action/Exam/Gymnastics Motion Tracking/Code for Gym Tracking/Analyzed Data/Webcam_Backflip/id8_1_baseline_Sports2D/id8_1_baseline_Sports2D_px_person00.trc
DataRate	CameraRate	NumFrames	NumMarkers	Units	OrigDataRate	OrigDataStartFrame	OrigNumFrames
29.714285714285715	29.714285714285715	12	22	m	29.714285714285715	26	105
Frame#	Time	Hip			RHip			RKnee			RAnkle			RBigToe			RSmallToe			RHeel			LHip			LKnee			LAnkle			LBigToe			LSmallToe			LHeel			Neck			Head			Nose			RShoulder			RElbow			RWrist			LShoulder			LElbow			LWrist		
		X1	Y1	Z1	X2	Y2	Z2	X3	Y3	Z3	X4	Y4	Z4	X5	Y5	Z5	X6	Y6	Z6	X7	Y7	Z7	X8	Y8	Z8	X9	Y9	Z9	X10	Y10	Z10	X11	Y11	Z11	X12	Y12	Z12	X13	Y13	Z13	X14	Y14	Z14	X15	Y15	Z15	X16	Y16	Z16	X17	Y17	Z17	X18	Y18	Z18	X19	Y19	Z19	X20	Y20	Z20	X21	Y21	Z21	X22	Y22	Z22
26	0.875	0.9799630741758534	-0.5280858301559883	0.0	0.9628869792088853	-0.5263909193884816	0.0	1.003055709229938	-0.7275061973796024	0.0	0.9178039202651117	-0.9214194468694572	0.0	0.977511793261775	-0.9793532595224932	0.0	0.9508453412118348	-0.9800651812497929	0.0	0.8907007764236816	-0.9444208007183513	0.0	1.0060121018498558	-0.5296305923283907	0.0	1.011283689602704	-0.7268329506565333	0.0	0.9681693923913002	-0.920510665276781	0.0	1.0538818110455517	-0.9564400561073169	0.0	1.0435527637839583	-0.9462183217168406	0.0	0.945643809746269	-0.943086536044147	0.0	1.007885927069687	-0.23168606531311148	0.0	1.0356945826884587	-0.10536859608002482	0.0	1.0484930070589473	-0.17496779748159422	0.0	0.9623886129918856	-0.27107083547298033	0.0	0.9958599244814367	-0.4248558932614528	0.0	1.0783098722920168	-0.5353925500985971	0.0	1.0321036966907777	-0.2778025279427923	0.0	1.0516129393479	-0.41479629425150727	0.0	1.0872232033862157	-0.5191268011469601	0.0
27	0.9086538461538461	0.9819701253967638	-0.5280731767327873	0.0	0.9680850692900143	-0.5261471041963811	0.0	1.0060901571101444	-0.7283832575266062	0.0	0.9305957898324274	-0.9265240349209146	0.0	0.9958228007603744	-0.9808068195524734	0.0	0.9692876363606054	-0.9833053208353836	0.0	0.9033892725663533	-0.9497369712618627	0.0	1.0056644819227374	-0.5287983901233975	0.0	1.0120398220860154	-0.726706412515696	0.0	0.9653200635322308	-0.9205799645083276	0.0	1.0544721911159904	-0.9565434402850127	0.0	1.0441412531854397	-0.9467038594592205	0.0	0.9397335049182866	-0.9427853780473788	0.0	1.0106129959990566	-0.23129339850461433	0.0	1.038714829614708	-0.10508055074843375	0.0	1.0512060079742451	-0.17452450370496733	0.0	0.9684762953160208	-0.2703077541632574	0.0	1.0009462459866674	-0.42493000980930384	0.0	1.080156079022884	-0.5368306244808628	0.0	1.0327577323290447	-0.27652450311071514	0.0	1.0527556030544012	-0.4140508816943601	0.0	1.0888297164036893	-0.5171422250002924	0.0
28	0.9423076923076923	0.983578578729188	-0.5278071735800525	0.0	0.972924198181771	-0.5256743622248208	0.0	1.007720269666417	-0.7293150785671548	0.0	0.9423431094276467	-0.931954182190205	0.0	1.0140574012655716	-0.9823101259316209	0.0	0.9874978912729998	-0.9867111599014238	0.0	0.9152147952676822	-0.9554053804364099	0.0	1.0043901764511063	-0.5276881917908922	0.0	1.0116604197787555	-0.7266172310999064	0.0	0.9635724705033917	-0.921338485908692	0.0	1.0559731020164447	-0.9569872733707812	0.0	1.0452803938115613	-0.9477617745707819	0.0	0.9352451497190959	-0.9432787592339006	0.0	1.0134057376202725	-0.23089976899020143	0.0	1.0421128097296404	-0.10473355605509266	0.0	1.054555118858693	-0.17424992713822637	0.0	0.9752010967225709	-0.2695474700895356	0.0	1.0068237570245195	-0.42528654414512657	0.0	1.0832461060118337	-0.5384681038783792	0.0	1.032621320202134	-0.2748275360331184	0.0	1.0528837768272945	-0.41298586504420604	0.0	1.0912916762017404	-0.5133261368527481	0.0
29	0.9759615384615384	0.9848144745281115	-0.5273249024878798	0.0	0.9770850227740363	-0.5250557361547616	0.0	1.0084936928463024	-0.7302223069025607	0.0	0.9520564007212844	-0.9371625021830781	0.0	1.030192122277212	-0.9836987540275384	0.0	1.00388333621728	-0.9897984384311256	0.0	0.9251895408164807	-0.9610561707606833	0.0	1.0023584911007721	-0.526511651717222	0.0	1.010434764911315	-0.7265835709260953	0.0	0.9634464124111832	-0.9228778461949373	0.0	1.0585402481106678	-0.9579346866948881	0.0	1.0471535441216198	-0.9494549488162476	0.0	0.9331638339785348	-0.944780313046939	0.0	1.0163501276677858	-0.2306159799323087	0.0	1.0459665936270128	-0.10446060724685745	0.0	1.058744125406081	-0.1742897567710054	0.0	0.9821799298685211	-0.26883715451347945	0.0	1.0128577185515564	-0.42599694814861067	0.0	1.0866768193057197	-0.5408268005389336	0.0	1.0318007649724827	-0.2729021570320795	0.0	1.0518915278787426	-0.41191864888494095	0.0	1.0936397017343598	-0.5088626888776383	0.0
30	1.0096153846153846	0.9857216668593014	-0.5267466150384162	0.0	0.9804486536753237	-0.5244325829362979	0.0	1.0088568430092613	-0.7311829940100206	0.0	0.959332471257055	-0.9419435890700222	0.0	1.0430128062760062	-0.984990367522144	0.0	1.017481791484562	-0.9924223077968022	0.0	0.9328448160299512	-0.9665291800070566	0.0	0.9997681402788611	-0.5254715743671776	0.0	1.0089878516920723	-0.7267307819594571	0.0	0.9648083744123951	-0.9250682008654709	0.0	1.0619897489483716	-0.9592821980433401	0.0	1.0497669310558184	-0.9515185544361446	0.0	0.9333414339273146	-0.947167953323905	0.0	1.0195247702105876	-0.23048944645832325	0.0	1.0502922357936484	-0.10435459481014624	0.0	1.0638090851596902	-0.17470699757169425	0.0	0.9890459022722573	-0.2682098015440958	0.0	1.0185104018717703	-0.42703944723575454	0.0	1.0892467713452259	-0.5441567605166382	0.0	1.030580674848488	-0.27102723239894594	0.0	1.0499179111066632	-0.41122285866619657	0.0	1.0950519920681578	-0.5059336439850386	0.0
31	1.0432692307692306	0.9863359406822696	-0.526192579066762	0.0	0.9830541352112663	-0.5239414492125883	0.0	1.0091725117084007	-0.7322539536816984	0.0	0.964146486631751	-0.9462130429214206	0.0	1.0521022186564801	-0.9862720360034064	0.0	1.0277596565335736	-0.9946308349969663	0.0	0.9380553108337345	-0.9716435540670683	0.0	0.9968094834498984	-0.5246451744765417	0.0	1.0080442622616816	-0.7271229641108932	0.0	0.9671072300350945	-0.9275699461204958	0.0	1.0659731585280188	-0.9607333689885084	0.0	1.0529968583014198	-0.9535053447715935	0.0	0.934952791517037	-0.9500225503881743	0.0	1.022997928496716	-0.2304774315541951	0.0	1.0551115547378056	-0.10443757467655634	0.0	1.0697360131511353	-0.1754656129359997	0.0	0.9956271483568494	-0.2676961548662971	0.0	1.0234095127590626	-0.42828948436675196	0.0	1.0896690221216105	-0.5484934555483876	0.0	1.0294152342090883	-0.26945844863849344	0.0	1.047251967205028	-0.4111656746447395	0.0	1.0948611315103463	-0.5074190985653703	0.0
32	1.0769230769230769	0.9866699314088238	-0.5257279359451291	0.0	0.9849674724785867	-0.5236637756337357	0.0	1.009663498930563	-0.7333971174558904	0.0	0.9667404693339151	-0.949820347608646	0.0	1.0576127458175155	-0.9876246024643528	0.0	1.034487554992138	-0.9965117525172095	0.0	0.9409745632473849	-0.9760883133274928	0.0	0.99366819415488	-0.5239889604805703	0.0	1.0079902995172179	-0.7277052264382576	0.0	0.9697133081141058	-0.9299161074850091	0.0	1.070023909820081	-0.9619766630493839	0.0	1.0565070611495626	-0.9550183804174913	0.0	0.9371445681605238	-0.9527729283401785	0.0	1.026906238733203	-0.23050954261869672	0.0	1.0605775156436497	-0.10472219174406067	0.0	1.0765173933518097	-0.17648031978085624	0.0	1.0020172672860095	-0.26729749332552777	0.0	1.027273990276855	-0.4294999774760874	0.0	1.0868504016388605	-0.5536019509892078	0.0	1.0287878098403431	-0.2683306157778571	0.0	1.0441550786666367	-0.41175185591876223	0.0	1.0924413737738128	-0.5144281455683619	0.0
33	1.1105769230769231	0.9866600256907714	-0.5253413770225488	0.0	0.9861194430733039	-0.5235909554964657	0.0	1.0103050708231964	-0.7345036070602436	0.0	0.9675942620083446	-0.9525190250331629	0.0	1.0601055681877853	-0.9889964219416768	0.0	1.0378398412021652	-0.9980554710931119	0.0	0.9420558023111855	-0.9794687913803096	0.0	0.9905203545714109	-0.5234243039372142	0.0	1.0087012058662497	-0.7283470605748671	0.0	0.9721390414981667	-0.9316395949883015	0.0	1.0735882373035293	-0.962825978681288	0.0	1.0597706109713279	-0.9558605307734503	0.0	0.9393565469756409	-0.9548804189409078	0.0	1.0315019992889167	-0.23058936577882638	0.0	1.067072062272725	-0.10527843234446102	0.0	1.0841750922880395	-0.17773158334501507	0.0	1.0084875998413203	-0.2669631263227696	0.0	1.0298204821579153	-0.4303403418240959	0.0	1.0801935904052278	-0.5589511224999253	0.0	1.029128619225938	-0.26763630355848594	0.0	1.0407972206633112	-0.41266419184892394	0.0	1.0871567204039956	-0.5246204854850202	0.0
34	1.1442307692307692	0.9860707551405425	-0.5249711031175145	0.0	0.9862311235644731	-0.5236164602146743	0.0	1.0108550604815079	-0.7354010504314916	0.0	0.9673516374637987	-0.9540851602952568	0.0	1.0604290494974347	-0.9901639331839933	0.0	1.0384853062768538	-0.9991208103815511	0.0	0.9419406450228225	-0.9814724131613072	0.0	0.9874564624088291	-0.5229024540654974	0.0	1.0097258138111476	-0.7288741321689731	0.0	0.974074878503245	-0.9324035290024378	0.0	1.0761896267857751	-0.9632547808006966	0.0	1.0622736754182995	-0.9560449522097065	0.0	0.9413284480500982	-0.9560103585791979	0.0	1.0370848109926807	-0.230850257483386	0.0	1.0751355898130626	-0.10620443642374018	0.0	1.092793862114062	-0.17933506279762484	0.0	1.0153220131040517	-0.26663733076334073	0.0	1.0308248148686978	-0.43055327728621734	0.0	1.069731550656663	-0.5638589137318422	0.0	1.0308827084138155	-0.26734830058184955	0.0	1.037362824176732	-0.4135001678453313	0.0	1.0783552300128094	-0.5344476443861643	0.0
35	1.1778846153846154	0.9845076618258856	-0.5245583741277777	0.0	0.9849510280430357	-0.5235625469428776	0.0	1.0110591816591843	-0.7358817261241608	0.0	0.9666730308027429	-0.9544496017926849	0.0	1.0595379071940065	-0.9909071834850863	0.0	1.0374149930085639	-0.9996001588176824	0.0	0.9412404192102498	-0.9820204822916926	0.0	0.984343607611565	-0.522387414833229	0.0	1.010521924500534	-0.7291269087641205	0.0	0.975350990848083	-0.9321100177198169	0.0	1.0776809666261666	-0.9633640848519616	0.0	1.0637451988811801	-0.955759112403659	0.0	0.9429615475550683	-0.9561538964569917	0.0	1.0438673456537988	-0.2315352814295308	0.0	1.0852361898589706	-0.10761922927204423	0.0	1.1024552973561583	-0.1815033280637666	0.0	1.0227232532583665	-0.26633799911242473	0.0	1.0303197265591437	-0.43016060964822017	0.0	1.0560603945427776	-0.567774243927455	0.0	1.0343610850659541	-0.26755967983874474	0.0	1.034054642503375	-0.41417420890761353	0.0	1.0655477029653226	-0.5420061897768788	0.0
36	1.2115384615384615	0.9815979416961883	-0.5240631635612287	0.0	0.9820836235417847	-0.5232364665000807	0.0	1.0108758634102908	-0.7357656246367601	0.0	0.966056154748224	-0.9537406048782595	0.0	1.0582633978295515	-0.9911709438131913	0.0	1.0356214956500918	-0.9995660654191458	0.0	0.9403818828968395	-0.9813172298637658	0.0	0.9808186458686048	-0.5217703517162121	0.0	1.0106724762955057	-0.729007816108819	0.0	0.9759250581628509	-0.930905568895614	0.0	1.0782909659828464	-0.9633126191521476	0.0	1.0641776244001029	-0.9553034456528412	0.0	0.9441595352475758	-0.955592490143003	0.0	1.051879562551791	-0.23299553714475565	0.0	1.0975499943016551	-0.10979632646057956	0.0	1.1131093747153302	-0.18452142744880476	0.0	1.030791820268304	-0.26626289329047187	0.0	1.028644085729541	-0.4295185880581419	0.0	1.0401676930503418	-0.5705683943402973	0.0	1.0394329193394756	-0.26852688954435194	0.0	1.0309106824341179	-0.41499310661428623	0.0	1.04894357275354	-0.5471993098126654	0.0
37	1.2451923076923077	0.9771592820975729	-0.5234988441686947	0.0	0.9776673801070613	-0.5225656996059969	0.0	1.0105880288987321	-0.7349221758658537	0.0	0.9657424895915143	-0.9522571890055073	0.0	1.0571272411131136	-0.9910477546116897	0.0	1.033848777867901	-0.9992166835154468	0.0	0.9395920811582114	-0.9797664183906811	0.0	0.9765296146431331	-0.5209028802684746	0.0	1.0101772180643431	-0.7284335137308111	0.0	0.9758703527091045	-0.9290623242014994	0.0	1.0783518552566933	-0.9632604997604445	0.0	1.063625438155215	-0.9549896123549393	0.0	0.9447750904110062	-0.9546968669812341	0.0	1.060927400977717	-0.23574349959423552	0.0	1.1118606060777185	-0.11328730821439115	0.0	1.1245504752883946	-0.18883229026186993	0.0	1.0394635007997972	-0.2669893873150568	0.0	1.0262237962231693	-0.42931346718020114	0.0	1.0231507262004218	-0.5727290617477843	0.0	1.0455777793058516	-0.2706744199700642	0.0	1.0277321487193856	-0.4164385365306536	0.0	1.029864923508686	-0.5507276235416158	0.0
